<svg xmlns="http://www.w3.org/2000/svg" viewBox="0 0 64 64" role="img" aria-label="Documentation manual stack">
  <defs>
    <linearGradient id="stackCover" x1="15" y1="6" x2="50" y2="59" gradientUnits="userSpaceOnUse">
      <stop offset="0" stop-color="#d8f7ff"/>
      <stop offset="0.52" stop-color="#61bfd8"/>
      <stop offset="1" stop-color="#1458a6"/>
    </linearGradient>
  </defs>
  <path fill="#0e367c" opacity="0.18" d="M14 13h34a7 7 0 0 1 7 7v33H18a7 7 0 0 1-7-7V16a3 3 0 0 1 3-3z"/>
  <path fill="#f9fdff" stroke="#ffffff" stroke-linejoin="round" stroke-width="3" d="M13 9h35a6 6 0 0 1 6 6v30H17a6 6 0 0 0-6 6V11a2 2 0 0 1 2-2z"/>
  <path fill="url(#stackCover)" stroke="#ffffff" stroke-linejoin="round" stroke-width="3" d="M17 15h33v31H17a6 6 0 0 0-6 6V21a6 6 0 0 1 6-6z"/>
  <path fill="none" stroke="#ffffff" stroke-linecap="round" stroke-width="3.2" opacity="0.9" d="M24 27h17M24 35h17"/>
  <path fill="#0e367c" opacity="0.22" d="M11 45h39v5H17a6 6 0 0 0-6 6V45z"/>
</svg>
