<svg xmlns="http://www.w3.org/2000/svg" viewBox="0 0 64 64" role="img" aria-label="Open documentation book">
  <defs>
    <linearGradient id="pageA" x1="8" y1="12" x2="32" y2="54" gradientUnits="userSpaceOnUse">
      <stop offset="0" stop-color="#ffffff"/>
      <stop offset="1" stop-color="#b7e8f1"/>
    </linearGradient>
    <linearGradient id="pageB" x1="32" y1="12" x2="56" y2="54" gradientUnits="userSpaceOnUse">
      <stop offset="0" stop-color="#d9f9ff"/>
      <stop offset="1" stop-color="#4f9ed1"/>
    </linearGradient>
  </defs>
  <path fill="#0e367c" opacity="0.18" d="M8 15c9-4 17-2 24 3 7-5 15-7 24-3v37c-9-4-17-2-24 3-7-5-15-7-24-3V15z"/>
  <path fill="url(#pageA)" stroke="#ffffff" stroke-linejoin="round" stroke-width="3" d="M8 11c9-4 17-2 24 3v37c-7-5-15-7-24-3V11z"/>
  <path fill="url(#pageB)" stroke="#ffffff" stroke-linejoin="round" stroke-width="3" d="M32 14c7-5 15-7 24-3v37c-9-4-17-2-24 3V14z"/>
  <path fill="none" stroke="#0e367c" stroke-linecap="round" stroke-width="3" opacity="0.55" d="M17 23h8M17 31h9M39 23h8M38 31h9M38 39h8"/>
</svg>
