<svg xmlns="http://www.w3.org/2000/svg" viewBox="0 0 1920 800" preserveAspectRatio="xMinYMid slice" role="img" aria-hidden="true">
  <defs>
    <linearGradient id="bgGrad" x1="0%" y1="0%" x2="100%" y2="100%">
      <stop offset="0%"   stop-color="#eef3f9"/>
      <stop offset="60%"  stop-color="#ffffff"/>
      <stop offset="100%" stop-color="#ffffff"/>
    </linearGradient>
    <linearGradient id="fadeRight" x1="0%" y1="0%" x2="100%" y2="0%">
      <stop offset="0%"   stop-color="#ffffff" stop-opacity="0"/>
      <stop offset="70%"  stop-color="#ffffff" stop-opacity="0"/>
      <stop offset="100%" stop-color="#ffffff" stop-opacity="1"/>
    </linearGradient>
  </defs>

  <rect width="1920" height="800" fill="url(#bgGrad)"/>
  <polygon points="395.0,-416.9 -439.9,316.7 442.3,653.3" fill="#13315c" fill-opacity="0.165" />
  <polygon points="144.4,727.0 130.0,75.1 -354.2,344.4" fill="#13315c" fill-opacity="0.152" />
  <polygon points="283.4,-486.2 215.8,559.0 1028.1,195.4" fill="#0b2545" fill-opacity="0.188" />
  <polygon points="-61.9,557.5 250.8,1137.5 562.6,672.6" fill="#5e8fba" fill-opacity="0.133" />
  <polygon points="-65.7,689.6 977.3,655.7 538.4,-114.6" fill="#13315c" fill-opacity="0.189" />
  <polygon points="876.6,-216.2 142.5,512.2 980.9,775.1" fill="#0b2545" fill-opacity="0.193" />
  <polygon points="503.1,1059.6 717.4,-127.1 -259.4,182.3" fill="#dbe7f0" fill-opacity="0.073" />
  <polygon points="390.3,-422.5 -562.7,319.8 372.8,741.7" fill="#5e8fba" fill-opacity="0.142" />
  <polygon points="1342.6,135.0 1118.4,944.1 1815.3,791.7" fill="#13315c" fill-opacity="0.181" />
  <polygon points="363.1,901.5 234.7,-415.1 -703.8,203.3" fill="#13315c" fill-opacity="0.209" />
  <polygon points="76.2,856.2 934.0,900.1 626.9,238.1" fill="#dbe7f0" fill-opacity="0.084" />
  <polygon points="413.9,1379.4 720.1,83.7 -375.0,367.3" fill="#13315c" fill-opacity="0.133" />
  <polygon points="164.7,196.1 1070.7,1220.6 1481.4,133.6" fill="#5e8fba" fill-opacity="0.158" />
  <polygon points="2008.2,717.6 1355.9,-439.5 744.9,509.5" fill="#13315c" fill-opacity="0.179" />
  <polygon points="430.9,737.7 143.4,-403.6 -600.2,264.9" fill="#dbe7f0" fill-opacity="0.060" />
  <polygon points="-340.7,147.7 526.8,1096.3 895.8,68.4" fill="#5e8fba" fill-opacity="0.157" />
  <polygon points="2344.7,487.1 1469.7,241.3 1631.9,996.3" fill="#13315c" fill-opacity="0.145" />
  <polygon points="-222.6,637.0 583.1,66.7 -165.0,-312.7" fill="#5e8fba" fill-opacity="0.122" />
  <polygon points="253.8,520.5 -26.1,217.1 -143.2,547.7" fill="#1c4775" fill-opacity="0.201" />
  <polygon points="632.4,272.7 340.3,596.4 699.4,687.5" fill="#b6cee2" fill-opacity="0.094" />
  <polygon points="505.3,318.6 165.8,311.2 294.9,569.3" fill="#3a6b9c" fill-opacity="0.154" />
  <polygon points="-21.1,596.4 150.2,434.8 -39.2,370.1" fill="#13315c" fill-opacity="0.228" />
  <polygon points="871.6,160.7 769.9,-91.9 620.4,84.7" fill="#5e8fba" fill-opacity="0.178" />
  <polygon points="751.7,508.2 827.2,280.4 626.0,314.0" fill="#dbe7f0" fill-opacity="0.079" />
  <polygon points="-32.1,130.4 404.0,281.8 344.9,-106.0" fill="#dbe7f0" fill-opacity="0.096" />
  <polygon points="12.3,300.4 300.4,-146.8 -149.9,-186.0" fill="#1c4775" fill-opacity="0.201" />
  <polygon points="1494.6,708.5 1786.8,625.1 1608.3,438.6" fill="#13315c" fill-opacity="0.201" />
  <polygon points="17.2,274.3 239.5,405.3 249.8,186.3" fill="#8db3d3" fill-opacity="0.130" />
  <polygon points="1003.0,546.2 538.9,522.9 705.4,880.9" fill="#3a6b9c" fill-opacity="0.191" />
  <polygon points="1252.8,307.6 1066.1,-24.1 891.0,247.7" fill="#0b2545" fill-opacity="0.233" />
  <polygon points="1146.1,491.5 1378.7,359.7 1187.5,237.1" fill="#8db3d3" fill-opacity="0.116" />
  <polygon points="1915.4,979.9 1680.7,500.9 1413.8,867.2" fill="#3a6b9c" fill-opacity="0.122" />
  <polygon points="447.9,72.7 338.3,424.4 646.0,367.3" fill="#0b2545" fill-opacity="0.178" />
  <polygon points="759.0,705.5 985.1,667.4 866.8,512.6" fill="#b6cee2" fill-opacity="0.117" />
  <polygon points="983.1,348.1 1193.2,504.7 1227.6,284.7" fill="#8db3d3" fill-opacity="0.090" />
  <polygon points="1536.3,585.6 1875.5,710.6 1834.9,406.1" fill="#13315c" fill-opacity="0.204" />
  <polygon points="-7.3,-10.7 43.6,236.6 209.3,100.3" fill="#1c4775" fill-opacity="0.192" />
  <polygon points="963.0,221.3 445.9,324.1 728.2,672.0" fill="#1c4775" fill-opacity="0.128" />
  <polygon points="1134.8,581.5 1352.6,671.4 1333.8,472.1" fill="#1c4775" fill-opacity="0.173" />
  <polygon points="1631.5,662.6 1380.4,554.6 1398.7,786.1" fill="#5e8fba" fill-opacity="0.140" />
  <polygon points="976.9,154.8 1211.9,465.9 1352.5,166.0" fill="#0b2545" fill-opacity="0.224" />
  <polygon points="150.7,187.4 233.5,582.3 497.5,363.5" fill="#b6cee2" fill-opacity="0.120" />
  <polygon points="1495.9,240.4 1608.3,14.1 1393.7,19.3" fill="#dbe7f0" fill-opacity="0.093" />
  <polygon points="862.0,535.4 620.3,606.6 769.6,760.0" fill="#13315c" fill-opacity="0.186" />
  <polygon points="27.6,369.4 350.3,595.0 391.9,263.0" fill="#13315c" fill-opacity="0.221" />
  <polygon points="75.4,58.7 -106.1,172.9 51.7,264.0" fill="#dbe7f0" fill-opacity="0.083" />
  <polygon points="1023.7,875.1 1339.9,714.9 1094.1,540.7" fill="#3a6b9c" fill-opacity="0.179" />
  <polygon points="362.9,242.4 352.9,608.9 632.3,471.1" fill="#5e8fba" fill-opacity="0.176" />
  <polygon points="1648.0,328.1 1602.2,-25.0 1355.0,149.4" fill="#b6cee2" fill-opacity="0.097" />
  <polygon points="-92.1,251.3 131.8,226.3 24.3,68.0" fill="#13315c" fill-opacity="0.223" />
  <polygon points="239.1,428.5 -174.8,546.5 78.0,810.8" fill="#1c4775" fill-opacity="0.230" />
  <polygon points="126.5,943.9 231.4,621.7 -52.3,670.6" fill="#3a6b9c" fill-opacity="0.128" />
  <polygon points="558.6,355.2 240.9,338.1 354.0,583.6" fill="#8db3d3" fill-opacity="0.091" />
  <polygon points="106.1,326.6 464.2,362.7 349.3,79.3" fill="#b6cee2" fill-opacity="0.090" />
  <polygon points="781.6,290.7 715.8,502.9 901.3,468.3" fill="#3a6b9c" fill-opacity="0.205" />
  <polygon points="-85.1,191.6 93.8,308.1 110.4,127.4" fill="#5e8fba" fill-opacity="0.161" />
  <polygon points="1244.6,458.3 1220.5,893.6 1557.1,739.2" fill="#b6cee2" fill-opacity="0.079" />
  <polygon points="1766.9,254.0 1403.6,510.0 1740.0,681.5" fill="#0b2545" fill-opacity="0.212" />
  <polygon points="96.5,559.0 -44.4,816.6 205.0,820.4" fill="#13315c" fill-opacity="0.213" />
  <polygon points="-72.8,606.9 27.7,805.9 137.4,651.5" fill="#dbe7f0" fill-opacity="0.057" />
  <polygon points="1833.9,406.9 2005.3,332.1 1881.2,232.9" fill="#0b2545" fill-opacity="0.183" />
  <polygon points="236.0,49.6 187.6,105.8 248.9,119.9" fill="#3a6b9c" fill-opacity="0.201" />
  <polygon points="971.6,465.8 975.9,385.2 913.6,413.9" fill="#1c4775" fill-opacity="0.155" />
  <polygon points="1386.8,765.9 1359.7,814.3 1406.8,815.5" fill="#3a6b9c" fill-opacity="0.161" />
  <polygon points="169.1,404.6 313.6,370.3 230.5,275.3" fill="#dbe7f0" fill-opacity="0.082" />
  <polygon points="1659.1,765.0 1564.6,748.2 1589.4,825.9" fill="#3a6b9c" fill-opacity="0.145" />
  <polygon points="1501.9,629.9 1472.5,487.8 1377.3,566.2" fill="#8db3d3" fill-opacity="0.155" />
  <polygon points="1417.2,-44.9 1467.8,89.5 1548.8,-1.8" fill="#b6cee2" fill-opacity="0.080" />
  <polygon points="-38.1,719.5 141.2,700.7 56.0,573.4" fill="#5e8fba" fill-opacity="0.148" />
  <polygon points="1148.4,41.2 1080.8,3.0 1078.9,68.9" fill="#0b2545" fill-opacity="0.154" />
  <polygon points="1882.0,775.6 1758.6,729.2 1772.6,840.3" fill="#5e8fba" fill-opacity="0.116" />
  <polygon points="183.3,274.3 131.0,240.3 126.1,293.2" fill="#3a6b9c" fill-opacity="0.136" />
  <polygon points="1386.0,15.3 1220.0,61.6 1320.6,167.9" fill="#0b2545" fill-opacity="0.169" />
  <polygon points="306.1,471.2 298.0,533.3 347.9,514.7" fill="#1c4775" fill-opacity="0.197" />
  <polygon points="1215.0,730.1 1145.4,647.1 1110.7,732.3" fill="#dbe7f0" fill-opacity="0.063" />
  <polygon points="1157.0,499.0 1190.8,544.3 1211.4,501.0" fill="#b6cee2" fill-opacity="0.114" />
  <polygon points="1403.5,180.5 1456.1,63.5 1347.3,70.3" fill="#0b2545" fill-opacity="0.215" />
  <polygon points="780.2,742.8 932.3,748.7 876.4,632.1" fill="#3a6b9c" fill-opacity="0.120" />
  <polygon points="89.4,584.2 17.5,404.4 -89.1,529.7" fill="#dbe7f0" fill-opacity="0.083" />
  <polygon points="960.5,582.6 1009.3,438.8 881.9,459.1" fill="#0b2545" fill-opacity="0.175" />
  <polygon points="89.9,662.8 -62.5,766.7 76.0,840.0" fill="#13315c" fill-opacity="0.207" />
  <polygon points="721.0,638.3 552.2,586.2 580.0,733.7" fill="#3a6b9c" fill-opacity="0.134" />
  <polygon points="1050.1,284.0 914.4,396.9 1053.0,454.2" fill="#5e8fba" fill-opacity="0.162" />
  <polygon points="957.0,494.3 897.3,509.5 932.4,548.3" fill="#5e8fba" fill-opacity="0.153" />
  <polygon points="1111.5,534.3 1131.1,467.2 1072.9,479.1" fill="#dbe7f0" fill-opacity="0.069" />
  <polygon points="1136.4,574.4 1016.2,482.8 995.0,609.4" fill="#5e8fba" fill-opacity="0.137" />
  <polygon points="705.4,63.8 522.2,49.8 584.3,193.1" fill="#13315c" fill-opacity="0.227" />
  <polygon points="-14.1,276.0 -47.4,445.5 93.1,403.4" fill="#dbe7f0" fill-opacity="0.104" />
  <polygon points="508.0,642.3 364.1,765.3 513.6,824.7" fill="#13315c" fill-opacity="0.141" />
  <polygon points="694.4,746.1 741.2,797.9 761.6,742.2" fill="#5e8fba" fill-opacity="0.172" />
  <polygon points="1141.2,284.0 1197.0,108.3 1042.8,136.0" fill="#0b2545" fill-opacity="0.143" />
  <polygon points="1718.7,553.8 1825.9,581.3 1804.1,489.9" fill="#b6cee2" fill-opacity="0.091" />
  <polygon points="314.2,672.1 360.4,691.6 356.7,649.1" fill="#b6cee2" fill-opacity="0.077" />
  <polygon points="1808.5,595.1 1660.7,483.9 1635.7,639.0" fill="#8db3d3" fill-opacity="0.089" />
  <polygon points="453.0,666.5 457.5,727.7 501.7,700.0" fill="#5e8fba" fill-opacity="0.170" />
  <polygon points="225.3,94.4 366.4,46.4 274.3,-40.6" fill="#1c4775" fill-opacity="0.153" />
  <polygon points="293.1,438.3 262.6,366.2 220.5,417.7" fill="#b6cee2" fill-opacity="0.123" />
  <polygon points="1368.2,411.1 1364.0,597.7 1505.9,526.9" fill="#3a6b9c" fill-opacity="0.181" />
  <polygon points="-42.1,584.8 65.5,631.8 58.2,532.3" fill="#5e8fba" fill-opacity="0.139" />
  <polygon points="1692.7,475.1 1682.1,400.3 1630.1,437.9" fill="#5e8fba" fill-opacity="0.123" />
  <polygon points="1180.1,807.7 1267.3,790.4 1219.7,731.7" fill="#5e8fba" fill-opacity="0.139" />
  <polygon points="1086.1,25.7 974.6,120.3 1090.0,166.6" fill="#dbe7f0" fill-opacity="0.082" />
  <polygon points="624.2,345.4 614.2,182.1 495.4,254.3" fill="#3a6b9c" fill-opacity="0.135" />
  <polygon points="178.9,480.3 138.0,391.6 87.5,457.6" fill="#3a6b9c" fill-opacity="0.197" />
  <polygon points="1237.1,389.8 1295.3,294.2 1200.4,288.4" fill="#b6cee2" fill-opacity="0.086" />
  <polygon points="1308.7,445.2 1245.5,324.9 1180.1,420.1" fill="#3a6b9c" fill-opacity="0.121" />
  <polygon points="1663.4,379.5 1658.4,232.9 1550.3,294.7" fill="#5e8fba" fill-opacity="0.169" />
  <polygon points="1537.3,24.9 1591.5,32.5 1575.8,-11.2" fill="#dbe7f0" fill-opacity="0.102" />
  <polygon points="613.8,-33.2 624.5,155.8 762.2,72.8" fill="#dbe7f0" fill-opacity="0.103" />
  <polygon points="232.3,126.2 269.5,63.4 207.6,60.3" fill="#13315c" fill-opacity="0.228" />
  <polygon points="1200.7,603.3 1221.5,440.1 1090.7,489.2" fill="#0b2545" fill-opacity="0.126" />
  <polygon points="56.3,462.0 111.0,471.7 96.6,426.8" fill="#1c4775" fill-opacity="0.194" />
  <polygon points="788.9,278.2 648.9,364.2 769.1,435.3" fill="#5e8fba" fill-opacity="0.142" />
  <polygon points="827.8,346.6 899.3,303.7 838.7,267.0" fill="#0b2545" fill-opacity="0.184" />
  <polygon points="1865.2,195.0 1921.3,274.5 1958.8,200.8" fill="#3a6b9c" fill-opacity="0.158" />
  <polygon points="118.3,227.0 310.9,248.2 250.5,95.1" fill="#5e8fba" fill-opacity="0.103" />
  <polygon points="202.8,638.9 87.4,729.6 201.3,780.4" fill="#3a6b9c" fill-opacity="0.176" />
  <polygon points="1733.8,197.0 1701.7,152.3 1680.8,194.1" fill="#b6cee2" fill-opacity="0.092" />
  <polygon points="437.4,-23.0 488.6,55.5 527.3,-14.1" fill="#13315c" fill-opacity="0.148" />
  <polygon points="1926.2,238.2 1759.9,191.4 1790.7,334.9" fill="#3a6b9c" fill-opacity="0.137" />
  <polygon points="1561.0,146.6 1687.9,79.9 1587.5,11.1" fill="#3a6b9c" fill-opacity="0.159" />
  <polygon points="1632.5,-20.9 1645.8,117.5 1744.5,52.6" fill="#0b2545" fill-opacity="0.149" />
  <polygon points="1857.4,84.7 1817.1,126.0 1864.1,139.8" fill="#b6cee2" fill-opacity="0.097" />
  <polygon points="1170.8,219.7 1118.7,261.6 1170.9,284.2" fill="#1c4775" fill-opacity="0.162" />
  <polygon points="170.7,663.4 80.1,797.3 216.6,812.3" fill="#b6cee2" fill-opacity="0.120" />
  <polygon points="1893.7,322.5 1842.4,364.4 1894.2,386.3" fill="#13315c" fill-opacity="0.164" />
  <polygon points="1894.2,71.3 1701.5,46.7 1759.4,201.3" fill="#8db3d3" fill-opacity="0.139" />
  <polygon points="296.7,652.6 359.3,659.7 339.9,609.8" fill="#3a6b9c" fill-opacity="0.148" />
  <polygon points="1659.0,109.5 1685.1,210.7 1750.8,151.0" fill="#0b2545" fill-opacity="0.194" />
  <polygon points="279.1,542.6 237.4,440.2 177.0,512.1" fill="#dbe7f0" fill-opacity="0.059" />
  <rect width="1920" height="800" fill="url(#fadeRight)"/>
</svg>
