<svg xmlns="http://www.w3.org/2000/svg" viewBox="0 0 1920 800" preserveAspectRatio="xMinYMid slice" role="img" aria-hidden="true">
  <defs>
    <linearGradient id="bgGrad" x1="0%" y1="0%" x2="100%" y2="100%">
      <stop offset="0%"   stop-color="#eef3f9"/>
      <stop offset="60%"  stop-color="#ffffff"/>
      <stop offset="100%" stop-color="#ffffff"/>
    </linearGradient>
    <linearGradient id="fadeRight" x1="0%" y1="0%" x2="100%" y2="0%">
      <stop offset="0%"   stop-color="#ffffff" stop-opacity="0"/>
      <stop offset="70%"  stop-color="#ffffff" stop-opacity="0"/>
      <stop offset="100%" stop-color="#ffffff" stop-opacity="1"/>
    </linearGradient>
  </defs>

  <rect width="1920" height="800" fill="url(#bgGrad)"/>
  <polygon points="395.0,-416.9 -439.9,316.7 442.3,653.3" fill="#f3c969" fill-opacity="0.091" />
  <polygon points="749.8,365.3 118.5,831.5 719.1,1121.1" fill="#4fa7c7" fill-opacity="0.104" />
  <polygon points="476.2,-137.3 -669.7,344.7 146.7,1014.8" fill="#1a3a8e" fill-opacity="0.194" />
  <polygon points="708.4,-495.1 18.8,313.2 899.6,511.0" fill="#1a3a8e" fill-opacity="0.131" />
  <polygon points="1602.1,-59.4 938.5,249.7 1433.9,625.8" fill="#2d75b6" fill-opacity="0.166" />
  <polygon points="1297.4,-133.1 245.6,-137.7 659.1,654.5" fill="#0d1b4c" fill-opacity="0.206" />
  <polygon points="-376.9,225.1 400.6,192.1 67.5,-379.1" fill="#4fa7c7" fill-opacity="0.163" />
  <polygon points="794.3,734.0 -35.0,398.0 41.3,1154.4" fill="#1a3a8e" fill-opacity="0.201" />
  <polygon points="-319.6,71.9 66.9,1012.9 620.8,349.4" fill="#e08040" fill-opacity="0.107" />
  <polygon points="1058.0,-217.7 60.4,-77.6 561.2,616.5" fill="#2d75b6" fill-opacity="0.127" />
  <polygon points="-251.9,-24.0 742.1,501.5 743.0,-453.8" fill="#f3c969" fill-opacity="0.141" />
  <polygon points="1202.7,749.2 1526.4,-75.8 778.1,8.0" fill="#c23b22" fill-opacity="0.097" />
  <polygon points="816.6,1026.5 1785.4,885.4 1295.3,213.3" fill="#0d1b4c" fill-opacity="0.228" />
  <polygon points="323.1,1037.8 383.5,-94.7 -491.5,308.9" fill="#e08040" fill-opacity="0.102" />
  <polygon points="1192.6,-239.1 229.9,-122.9 698.9,554.5" fill="#0d1b4c" fill-opacity="0.199" />
  <polygon points="430.9,737.7 143.4,-403.6 -600.2,264.9" fill="#c23b22" fill-opacity="0.100" />
  <polygon points="366.8,29.1 -424.2,287.4 83.5,779.4" fill="#4fa7c7" fill-opacity="0.171" />
  <polygon points="-227.5,-26.7 64.1,817.0 582.5,263.3" fill="#1a3a8e" fill-opacity="0.142" />
  <polygon points="88.4,336.3 171.5,67.7 -63.3,111.7" fill="#f3c969" fill-opacity="0.097" />
  <polygon points="46.3,277.0 388.0,96.5 116.9,-88.7" fill="#2d75b6" fill-opacity="0.203" />
  <polygon points="758.7,512.5 1173.2,483.8 987.4,183.7" fill="#0d1b4c" fill-opacity="0.195" />
  <polygon points="1396.2,980.9 1699.9,666.0 1342.8,562.6" fill="#4fa7c7" fill-opacity="0.132" />
  <polygon points="76.3,398.7 -85.3,550.1 92.5,611.5" fill="#1a3a8e" fill-opacity="0.174" />
  <polygon points="-21.1,596.4 150.2,434.8 -39.2,370.1" fill="#f3c969" fill-opacity="0.091" />
  <polygon points="109.4,225.5 562.2,1.5 214.4,-250.0" fill="#1a3a8e" fill-opacity="0.195" />
  <polygon points="1893.2,334.5 1564.4,493.9 1814.5,677.8" fill="#4fa7c7" fill-opacity="0.181" />
  <polygon points="532.7,288.0 335.0,404.9 501.3,507.2" fill="#2d75b6" fill-opacity="0.183" />
  <polygon points="678.9,496.8 301.2,453.8 418.6,754.7" fill="#f3c969" fill-opacity="0.110" />
  <polygon points="1196.5,805.8 840.3,507.5 757.4,893.5" fill="#e08040" fill-opacity="0.134" />
  <polygon points="1126.8,121.0 801.6,162.3 961.6,390.3" fill="#c23b22" fill-opacity="0.083" />
  <polygon points="459.6,574.3 836.9,385.2 545.2,176.6" fill="#c23b22" fill-opacity="0.129" />
  <polygon points="1162.9,661.5 1622.2,819.4 1558.8,411.7" fill="#1a3a8e" fill-opacity="0.148" />
  <polygon points="224.9,511.6 660.2,840.3 734.7,382.9" fill="#4fa7c7" fill-opacity="0.120" />
  <polygon points="890.2,588.4 890.5,944.3 1157.9,802.9" fill="#2d75b6" fill-opacity="0.204" />
  <polygon points="431.5,127.0 153.0,110.3 250.8,326.2" fill="#1a3a8e" fill-opacity="0.178" />
  <polygon points="1809.0,397.4 1844.0,594.7 1978.4,490.2" fill="#2d75b6" fill-opacity="0.189" />
  <polygon points="-254.2,472.3 173.6,763.6 222.9,326.6" fill="#c23b22" fill-opacity="0.082" />
  <polygon points="1657.7,152.9 1317.1,401.8 1639.1,559.1" fill="#e08040" fill-opacity="0.103" />
  <polygon points="560.5,639.9 110.1,688.7 325.3,1007.8" fill="#1a3a8e" fill-opacity="0.129" />
  <polygon points="566.8,548.8 948.2,352.6 649.6,143.8" fill="#f3c969" fill-opacity="0.155" />
  <polygon points="1028.6,137.0 661.4,272.3 908.7,494.7" fill="#0d1b4c" fill-opacity="0.236" />
  <polygon points="1245.1,-77.1 804.3,59.8 1081.9,336.8" fill="#c23b22" fill-opacity="0.082" />
  <polygon points="1490.2,169.9 1597.4,-82.2 1365.4,-62.8" fill="#c23b22" fill-opacity="0.105" />
  <polygon points="82.1,223.6 123.8,465.5 289.0,338.3" fill="#2d75b6" fill-opacity="0.198" />
  <polygon points="706.0,556.6 948.4,849.6 1072.4,551.3" fill="#f3c969" fill-opacity="0.093" />
  <polygon points="-212.0,363.4 215.3,632.0 247.8,204.5" fill="#f3c969" fill-opacity="0.084" />
  <polygon points="1066.9,168.4 1421.6,254.8 1345.9,-46.0" fill="#f3c969" fill-opacity="0.088" />
  <polygon points="742.1,391.7 1053.9,587.7 1077.6,275.7" fill="#f3c969" fill-opacity="0.088" />
  <polygon points="123.7,154.0 145.7,-78.8 -38.0,-3.0" fill="#0d1b4c" fill-opacity="0.231" />
  <polygon points="1609.3,577.2 1781.6,201.1 1430.7,220.7" fill="#f3c969" fill-opacity="0.098" />
  <polygon points="160.5,665.7 367.3,230.5 -41.7,247.6" fill="#1a3a8e" fill-opacity="0.202" />
  <polygon points="1442.5,899.3 1644.4,690.6 1407.5,621.6" fill="#1a3a8e" fill-opacity="0.217" />
  <polygon points="130.2,-73.9 -136.0,159.6 145.1,267.1" fill="#1a3a8e" fill-opacity="0.172" />
  <polygon points="-23.3,220.2 181.6,349.8 197.8,144.5" fill="#e08040" fill-opacity="0.119" />
  <polygon points="318.7,333.1 366.0,90.0 164.6,150.9" fill="#e08040" fill-opacity="0.140" />
  <polygon points="86.4,244.3 420.1,676.0 612.2,254.2" fill="#1a3a8e" fill-opacity="0.202" />
  <polygon points="2045.1,439.0 1877.0,135.6 1715.6,382.3" fill="#0d1b4c" fill-opacity="0.227" />
  <polygon points="22.8,254.1 -149.3,562.9 151.0,569.8" fill="#2d75b6" fill-opacity="0.162" />
  <polygon points="132.1,656.4 160.1,893.8 327.4,778.7" fill="#1a3a8e" fill-opacity="0.231" />
  <polygon points="-85.1,191.6 93.8,308.1 110.4,127.4" fill="#2d75b6" fill-opacity="0.185" />
  <polygon points="1398.0,602.9 1389.6,753.8 1506.4,700.3" fill="#4fa7c7" fill-opacity="0.111" />
  <polygon points="1736.4,385.9 1609.9,475.1 1727.1,534.9" fill="#0d1b4c" fill-opacity="0.236" />
  <polygon points="155.9,667.9 112.6,747.1 189.2,748.2" fill="#0d1b4c" fill-opacity="0.236" />
  <polygon points="22.0,664.0 49.0,717.5 78.5,676.0" fill="#4fa7c7" fill-opacity="0.099" />
  <polygon points="1833.9,406.9 2005.3,332.1 1881.2,232.9" fill="#0d1b4c" fill-opacity="0.203" />
  <polygon points="236.0,49.6 187.6,105.8 248.9,119.9" fill="#1a3a8e" fill-opacity="0.227" />
  <polygon points="971.6,465.8 975.9,385.2 913.6,413.9" fill="#e08040" fill-opacity="0.089" />
  <polygon points="397.0,-32.3 355.8,44.8 430.0,45.2" fill="#e08040" fill-opacity="0.110" />
  <polygon points="1872.4,455.5 1877.8,369.0 1810.6,399.2" fill="#e08040" fill-opacity="0.131" />
  <polygon points="604.1,469.7 556.3,301.5 448.8,404.1" fill="#f3c969" fill-opacity="0.106" />
  <polygon points="162.7,152.0 189.8,226.9 235.3,176.9" fill="#e08040" fill-opacity="0.119" />
  <polygon points="517.1,256.6 462.7,277.1 499.7,309.8" fill="#0d1b4c" fill-opacity="0.215" />
  <polygon points="1557.6,360.5 1615.3,352.5 1586.4,312.3" fill="#4fa7c7" fill-opacity="0.171" />
  <polygon points="1099.0,238.0 1031.2,184.7 1018.1,256.8" fill="#4fa7c7" fill-opacity="0.114" />
  <polygon points="317.4,29.7 251.7,-51.6 216.7,30.0" fill="#f3c969" fill-opacity="0.107" />
  <polygon points="52.8,687.7 -29.7,689.9 4.7,751.1" fill="#2d75b6" fill-opacity="0.149" />
  <polygon points="626.6,445.3 659.5,372.4 591.7,376.5" fill="#0d1b4c" fill-opacity="0.151" />
  <polygon points="1463.8,173.4 1426.9,40.7 1341.8,121.1" fill="#2d75b6" fill-opacity="0.141" />
  <polygon points="146.1,468.2 265.2,518.3 255.6,409.0" fill="#e08040" fill-opacity="0.136" />
  <polygon points="1245.9,493.5 1406.7,527.8 1368.8,393.4" fill="#4fa7c7" fill-opacity="0.111" />
  <polygon points="1157.0,499.0 1190.8,544.3 1211.4,501.0" fill="#f3c969" fill-opacity="0.129" />
  <polygon points="1201.4,687.5 1238.0,626.9 1178.0,623.4" fill="#f3c969" fill-opacity="0.125" />
  <polygon points="1328.7,-11.5 1445.9,86.4 1473.0,-40.5" fill="#e08040" fill-opacity="0.122" />
  <polygon points="1130.2,164.3 1078.8,182.4 1112.8,213.9" fill="#2d75b6" fill-opacity="0.204" />
  <polygon points="447.4,330.4 419.2,380.5 468.0,381.8" fill="#f3c969" fill-opacity="0.133" />
  <polygon points="565.9,3.6 723.0,67.1 708.4,-76.1" fill="#f3c969" fill-opacity="0.149" />
  <polygon points="67.8,506.6 104.7,349.3 -28.2,383.9" fill="#c23b22" fill-opacity="0.074" />
  <polygon points="219.4,586.2 295.7,612.4 285.1,544.7" fill="#4fa7c7" fill-opacity="0.139" />
  <polygon points="372.8,374.5 506.3,447.7 508.4,318.3" fill="#f3c969" fill-opacity="0.130" />
  <polygon points="125.8,510.9 223.0,488.8 167.8,424.5" fill="#e08040" fill-opacity="0.097" />
  <polygon points="852.9,13.7 801.5,-15.2 800.2,34.9" fill="#e08040" fill-opacity="0.084" />
  <polygon points="277.0,410.3 149.8,319.9 132.2,451.3" fill="#4fa7c7" fill-opacity="0.137" />
  <polygon points="72.4,672.4 52.1,749.5 118.2,734.2" fill="#4fa7c7" fill-opacity="0.099" />
  <polygon points="629.8,755.6 644.8,561.3 492.8,627.0" fill="#2d75b6" fill-opacity="0.149" />
  <polygon points="1702.4,716.7 1652.3,751.6 1698.4,775.4" fill="#e08040" fill-opacity="0.112" />
  <polygon points="1780.4,199.0 1855.5,43.4 1708.8,48.6" fill="#0d1b4c" fill-opacity="0.224" />
  <polygon points="224.0,652.9 159.7,757.5 263.8,764.3" fill="#0d1b4c" fill-opacity="0.254" />
  <polygon points="1123.4,398.3 1102.5,240.8 992.5,318.9" fill="#4fa7c7" fill-opacity="0.125" />
  <polygon points="1404.7,-45.0 1498.5,87.5 1560.9,-35.6" fill="#0d1b4c" fill-opacity="0.253" />
  <polygon points="252.8,11.1 105.7,-53.7 115.3,82.5" fill="#0d1b4c" fill-opacity="0.187" />
  <polygon points="1941.0,521.7 1935.0,417.9 1859.4,463.5" fill="#2d75b6" fill-opacity="0.194" />
  <polygon points="225.3,94.4 366.4,46.4 274.3,-40.6" fill="#1a3a8e" fill-opacity="0.153" />
  <polygon points="293.1,438.3 262.6,366.2 220.5,417.7" fill="#4fa7c7" fill-opacity="0.172" />
  <polygon points="1368.2,411.1 1364.0,597.7 1505.9,526.9" fill="#f3c969" fill-opacity="0.099" />
  <polygon points="4.3,791.8 104.4,742.9 28.0,687.0" fill="#1a3a8e" fill-opacity="0.196" />
  <polygon points="366.9,-31.6 191.3,37.7 313.0,142.1" fill="#4fa7c7" fill-opacity="0.133" />
  <polygon points="216.3,254.2 373.1,219.8 285.1,115.6" fill="#4fa7c7" fill-opacity="0.153" />
  <polygon points="367.8,416.7 259.6,430.3 312.7,506.2" fill="#1a3a8e" fill-opacity="0.134" />
  <polygon points="700.8,717.6 713.9,585.9 609.8,628.3" fill="#2d75b6" fill-opacity="0.208" />
  <polygon points="602.4,76.0 537.7,120.8 597.0,151.7" fill="#2d75b6" fill-opacity="0.165" />
  <polygon points="434.4,267.4 264.0,251.3 319.5,385.7" fill="#0d1b4c" fill-opacity="0.230" />
  <polygon points="557.5,380.6 510.0,261.3 439.2,344.3" fill="#2d75b6" fill-opacity="0.184" />
  <polygon points="623.5,481.1 727.3,480.8 686.0,402.9" fill="#f3c969" fill-opacity="0.129" />
  <polygon points="1587.6,172.3 1503.8,138.3 1511.5,214.8" fill="#4fa7c7" fill-opacity="0.152" />
  <polygon points="526.4,158.9 493.3,327.6 633.1,285.6" fill="#1a3a8e" fill-opacity="0.129" />
  <polygon points="1113.6,772.1 1211.3,701.1 1119.2,655.8" fill="#0d1b4c" fill-opacity="0.149" />
  <polygon points="1736.4,810.6 1761.4,684.1 1656.4,715.5" fill="#4fa7c7" fill-opacity="0.119" />
  <polygon points="6.3,152.1 134.4,148.0 80.5,53.3" fill="#c23b22" fill-opacity="0.113" />
  <polygon points="979.7,672.3 1057.7,583.1 959.8,559.9" fill="#0d1b4c" fill-opacity="0.140" />
  <polygon points="56.3,462.0 111.0,471.7 96.6,426.8" fill="#1a3a8e" fill-opacity="0.194" />
  <polygon points="788.9,278.2 648.9,364.2 769.1,435.3" fill="#2d75b6" fill-opacity="0.162" />
  <polygon points="827.8,346.6 899.3,303.7 838.7,267.0" fill="#0d1b4c" fill-opacity="0.204" />
  <polygon points="1865.2,195.0 1921.3,274.5 1958.8,200.8" fill="#1a3a8e" fill-opacity="0.177" />
  <polygon points="118.3,227.0 310.9,248.2 250.5,95.1" fill="#2d75b6" fill-opacity="0.117" />
  <polygon points="202.8,638.9 87.4,729.6 201.3,780.4" fill="#1a3a8e" fill-opacity="0.198" />
  <polygon points="1733.8,197.0 1701.7,152.3 1680.8,194.1" fill="#4fa7c7" fill-opacity="0.128" />
  <polygon points="437.4,-23.0 488.6,55.5 527.3,-14.1" fill="#0d1b4c" fill-opacity="0.165" />
  <polygon points="1926.2,238.2 1759.9,191.4 1790.7,334.9" fill="#1a3a8e" fill-opacity="0.155" />
  <polygon points="1561.0,146.6 1687.9,79.9 1587.5,11.1" fill="#1a3a8e" fill-opacity="0.178" />
  <polygon points="1632.5,-20.9 1645.8,117.5 1744.5,52.6" fill="#0d1b4c" fill-opacity="0.166" />
  <rect width="1920" height="800" fill="url(#fadeRight)"/>
</svg>
